<svg width="575" height="130" viewBox="0 0 575 130" fill="none" xmlns="http://www.w3.org/2000/svg">
<g clip-path="url(#clip0_111_1647)">
<path fill-rule="evenodd" clip-rule="evenodd" d="M44.68 83.76C44.3171 84.0748 43.8657 84.2697 43.3878 84.318C42.9098 84.3663 42.4286 84.2657 42.01 84.03C38.26 80.91 37.58 79.47 35.54 76.5C29.33 82.82 24.94 84.71 16.91 84.71C7.4 84.71 0 78.84 0 67.1C0 57.93 5 51.7 12 48.64C18.13 45.95 26.69 45.46 33.24 44.72V43.26C33.24 40.57 33.45 37.39 31.87 35.06C30.49 32.98 27.87 32.13 25.53 32.13C21.22 32.13 17.38 34.34 16.44 38.91C16.3821 39.4285 16.1546 39.9134 15.793 40.2895C15.4314 40.6655 14.9558 40.9118 14.44 40.99L3.58 39.8C3.31184 39.7616 3.05428 39.6691 2.82294 39.5282C2.5916 39.3872 2.3913 39.2008 2.2342 38.9801C2.0771 38.7594 1.96647 38.5091 1.90902 38.2443C1.85157 37.9796 1.8485 37.706 1.9 37.44C4.41 24.16 16.41 20.15 27.16 20.15C32.66 20.15 39.84 21.61 44.16 25.77C49.65 30.91 49.16 37.77 49.16 45.22V62.81C49.16 68.11 51.36 70.43 53.43 73.28C54.15 74.28 54.31 75.53 53.43 76.28C51.12 78.21 47.02 81.77 44.77 83.78L44.68 83.76ZM33.29 56.22C33.29 60.62 33.39 64.29 31.18 68.22C29.38 71.4 26.53 73.36 23.35 73.36C19.02 73.36 16.49 70.06 16.49 65.16C16.49 55.54 25.12 53.79 33.29 53.79V56.24V56.22ZM75.62 83.32H64.33C63.8232 83.2937 63.3427 83.0865 62.9757 82.736C62.6087 82.3855 62.3796 81.915 62.33 81.41V23.41C62.3483 22.8512 62.5845 22.3217 62.9882 21.9348C63.3919 21.548 63.9309 21.3345 64.49 21.34H75.02C75.5411 21.3687 76.0333 21.5887 76.4023 21.9577C76.7713 22.3267 76.9912 22.8189 77.02 23.34V30.91H77.23C79.97 23.58 85.14 20.17 92.1 20.17C99.06 20.17 103.59 23.58 106.76 30.91C107.799 28.1394 109.557 25.6953 111.853 23.8282C114.149 21.9612 116.9 20.7385 119.824 20.2855C122.748 19.8326 125.74 20.1657 128.493 21.2508C131.246 22.3358 133.661 24.1337 135.49 26.46C139.08 31.34 138.34 38.46 138.34 44.64V81.23C138.335 81.5106 138.274 81.7874 138.162 82.0445C138.049 82.3016 137.887 82.5339 137.684 82.7281C137.482 82.9224 137.243 83.0746 136.981 83.1762C136.72 83.2778 136.441 83.3266 136.16 83.32H124.87C124.335 83.2921 123.83 83.0616 123.459 82.6753C123.087 82.289 122.877 81.7759 122.87 81.24V50.5C122.87 48.06 123.08 41.96 122.55 39.64C121.71 35.74 119.18 34.64 115.91 34.64C114.444 34.6848 113.023 35.1587 111.823 36.003C110.623 36.8472 109.697 38.0248 109.16 39.39C108 42.33 108.1 47.2 108.1 50.5V81.23C108.095 81.5097 108.035 81.7857 107.923 82.0421C107.811 82.2986 107.649 82.5304 107.448 82.7245C107.246 82.9186 107.009 83.0711 106.748 83.1733C106.488 83.2754 106.21 83.3253 105.93 83.32H94.61C94.0756 83.2898 93.5725 83.0586 93.2015 82.6728C92.8306 82.287 92.6192 81.7751 92.61 81.24V50.5C92.61 44.03 93.61 34.5 85.61 34.5C77.61 34.5 77.81 43.77 77.81 50.5V81.23C77.8048 81.5106 77.7442 81.7874 77.6317 82.0445C77.5192 82.3016 77.357 82.5339 77.1544 82.7281C76.9518 82.9224 76.7129 83.0746 76.4513 83.1762C76.1897 83.2778 75.9106 83.3266 75.63 83.32M201.49 73.24C199.42 70.39 197.22 68.07 197.22 62.78V45.18C197.22 37.72 197.75 30.87 192.22 25.73C187.89 21.57 180.71 20.11 175.22 20.11C164.47 20.11 152.47 24.11 149.95 37.4C149.897 37.6674 149.899 37.9428 149.957 38.2093C150.014 38.4758 150.125 38.7278 150.283 38.9497C150.442 39.1717 150.644 39.359 150.877 39.5C151.11 39.6411 151.37 39.7329 151.64 39.77L162.59 40.95C163.105 40.8702 163.58 40.6234 163.941 40.2477C164.302 39.8719 164.53 39.3879 164.59 38.87C165.54 34.3 169.36 32.09 173.67 32.09C176 32.09 178.67 32.95 180.01 35.03C181.6 37.35 181.39 40.53 181.39 43.22V44.65C174.84 45.38 166.27 45.87 160.15 48.56C153.07 51.62 148.1 57.85 148.1 67.03C148.1 78.76 155.5 84.63 165.01 84.63C173.01 84.63 177.43 82.74 183.63 76.42C185.69 79.42 186.36 80.83 190.11 83.95C190.528 84.1843 191.008 84.2849 191.486 84.2384C191.963 84.1919 192.415 84.0006 192.78 83.69C195.03 81.69 199.13 78.12 201.44 76.19C202.41 75.5 202.25 74.28 201.49 73.24ZM179.29 68.17C177.5 71.34 174.64 73.3 171.47 73.3C167.14 73.3 164.61 70 164.61 65.11C164.61 55.48 173.24 53.74 181.41 53.74V56.18C181.41 60.59 181.49 64.25 179.29 68.17ZM211.05 31.5V23.21C211.037 22.9304 211.083 22.6511 211.184 22.3903C211.286 22.1295 211.441 21.8929 211.64 21.6959C211.839 21.4989 212.077 21.3459 212.339 21.2467C212.601 21.1474 212.881 21.1043 213.16 21.12H250.29C250.569 21.1105 250.848 21.1577 251.108 21.2588C251.369 21.3598 251.606 21.5126 251.806 21.7079C252.006 21.9032 252.165 22.137 252.272 22.3951C252.379 22.6533 252.433 22.9305 252.43 23.21V30.32C252.43 31.51 251.43 33.07 249.64 35.53L230.4 62.99C237.54 62.82 245.09 63.89 251.58 67.54C252.169 67.854 252.664 68.3182 253.015 68.8855C253.367 69.4528 253.561 70.103 253.58 70.77V79.65C253.58 80.87 252.25 82.28 250.84 81.55C244.77 78.4301 238.041 76.8085 231.216 76.8206C224.392 76.8328 217.669 78.4785 211.61 81.62C210.32 82.31 208.97 80.92 208.97 79.7V71.25C208.852 69.2581 209.333 67.2765 210.35 65.56L232.64 33.56H213.2C212.92 33.5709 212.64 33.5247 212.379 33.4242C212.117 33.3238 211.878 33.1713 211.677 32.9758C211.476 32.7804 211.317 32.5461 211.209 32.2873C211.101 32.0284 211.047 31.7504 211.05 31.47M284.49 31.92C276.16 31.92 275.63 43.26 275.63 50.34C275.63 57.42 275.53 72.54 284.38 72.54C293.23 72.54 293.56 60.34 293.56 52.9C293.56 48.02 293.35 42.16 291.87 37.53C290.6 33.53 288.07 31.92 284.49 31.92ZM284.38 20.08C301.15 20.08 310.22 34.48 310.22 52.78C310.22 70.47 300.22 84.5 284.38 84.5C267.93 84.5 258.97 70.1 258.97 52.17C258.97 34.24 268.04 20.08 284.38 20.08ZM332.08 83.2H320.82C320.285 83.1721 319.78 82.9416 319.409 82.5553C319.037 82.169 318.827 81.6559 318.82 81.12V23.12C318.878 22.5889 319.133 22.0988 319.534 21.7468C319.936 21.3949 320.456 21.2069 320.99 21.22H331.47C331.934 21.2349 332.381 21.4013 332.742 21.6938C333.103 21.9862 333.359 22.3888 333.47 22.84V31.71H333.69C336.85 23.78 341.28 20 349.08 20C354.14 20 359.08 21.83 362.27 26.83C365.22 31.47 365.22 39.28 365.22 44.89V81.38C365.14 81.8948 364.876 82.363 364.477 82.6978C364.078 83.0325 363.571 83.211 363.05 83.2H351.69C351.196 83.1789 350.726 82.9851 350.36 82.6525C349.995 82.3199 349.757 81.8696 349.69 81.38V49.89C349.69 43.55 350.43 34.27 342.62 34.27C341.2 34.3357 339.829 34.8079 338.669 35.6305C337.51 36.453 336.611 37.5914 336.08 38.91C334.5 42.45 334.29 45.99 334.29 49.91V81.12C334.269 81.6859 334.027 82.2209 333.615 82.61C333.204 82.999 332.656 83.2109 332.09 83.2M424 30.03C418.259 30.0753 412.688 31.9884 408.13 35.48V68.48C413.183 72.28 418.393 74.1767 423.76 74.17C434.653 74.17 440.1 66.8367 440.1 52.17C440.1 37.5033 434.733 30.12 424 30.02V30.03ZM407.3 28.49C410.138 25.9874 413.381 23.9855 416.89 22.57C420.205 21.2486 423.741 20.5699 427.31 20.57C430.857 20.504 434.376 21.2139 437.62 22.65C440.677 24.0516 443.355 26.1636 445.43 28.81C447.69 31.7418 449.36 35.0832 450.35 38.65C451.549 42.8773 452.129 47.2563 452.07 51.65C452.125 56.1372 451.504 60.6072 450.23 64.91C449.163 68.5612 447.416 71.9779 445.08 74.98C442.911 77.7095 440.156 79.9171 437.02 81.44C433.724 82.9698 430.123 83.7257 426.49 83.65C419.701 83.7623 413.129 81.2555 408.14 76.65V104.41C408.187 104.732 408.158 105.061 408.056 105.37C407.953 105.679 407.78 105.96 407.55 106.19C407.32 106.42 407.039 106.593 406.73 106.696C406.421 106.798 406.092 106.827 405.77 106.78H398.77C398.448 106.827 398.119 106.798 397.81 106.696C397.501 106.593 397.22 106.42 396.99 106.19C396.76 105.96 396.587 105.679 396.484 105.37C396.382 105.061 396.353 104.732 396.4 104.41V24.7C396.355 24.3783 396.385 24.0505 396.489 23.7425C396.592 23.4345 396.765 23.1546 396.995 22.9249C397.225 22.6952 397.504 22.522 397.812 22.4187C398.121 22.3155 398.448 22.2851 398.77 22.33H403.98C404.316 22.2985 404.656 22.3356 404.977 22.4389C405.299 22.5423 405.597 22.7098 405.852 22.9313C406.107 23.1528 406.315 23.4237 406.462 23.7277C406.61 24.0317 406.694 24.3625 406.71 24.7L407.3 28.49ZM481.61 75.07C484.401 75.0346 487.165 74.517 489.78 73.54C492.715 72.4606 495.469 70.9435 497.95 69.04V56.95C495.898 56.4674 493.822 56.0936 491.73 55.83C489.631 55.5547 487.517 55.4144 485.4 55.41C476.467 55.41 472.003 58.8467 472.01 65.72C472.01 68.72 472.84 71.03 474.5 72.65C476.16 74.27 478.53 75.0767 481.61 75.07ZM467.75 32.65L466.86 32.95C466.539 33.0641 466.201 33.1249 465.86 33.13C464.86 33.13 464.32 32.42 464.32 30.99V27.82C464.244 27.0193 464.411 26.2142 464.8 25.51C465.311 24.9369 465.962 24.5062 466.69 24.26C469.697 23.0378 472.834 22.1622 476.04 21.65C479.713 20.985 483.438 20.6503 487.17 20.65C494.67 20.65 500.197 22.1867 503.75 25.26C507.303 28.3333 509.083 33.11 509.09 39.59V80.05C509.135 80.3717 509.105 80.6995 509.001 81.0075C508.898 81.3155 508.725 81.5954 508.495 81.8251C508.265 82.0548 507.985 82.228 507.677 82.3313C507.369 82.4345 507.042 82.4649 506.72 82.42H501.62C501.3 82.4516 500.977 82.4176 500.67 82.3202C500.363 82.2228 500.08 82.0641 499.837 81.8535C499.593 81.643 499.396 81.3852 499.255 81.0958C499.115 80.8063 499.035 80.4914 499.02 80.17L498.42 76.26C495.631 78.6767 492.448 80.5978 489.01 81.94C485.75 83.2468 482.272 83.9254 478.76 83.94C473.08 83.94 468.58 82.34 465.26 79.14C461.94 75.94 460.273 71.6567 460.26 66.29C460.26 60.53 462.313 55.93 466.42 52.49C470.527 49.05 476.053 47.3333 483 47.34C488.035 47.4174 493.043 48.0887 497.92 49.34V41.56C497.92 37.2933 496.973 34.2933 495.08 32.56C493.187 30.8267 489.87 29.9567 485.13 29.95C479.237 30.0057 473.382 30.9151 467.75 32.65ZM547.63 92.91C545.49 98.3567 543.02 102.267 540.22 104.64C537.42 107.013 533.753 108.197 529.22 108.19C526.943 108.22 524.672 107.941 522.47 107.36C521.73 107.202 521.062 106.805 520.57 106.23C520.121 105.507 519.914 104.659 519.98 103.81V100.73C519.98 99.23 520.57 98.48 521.76 98.48C522.359 98.5073 522.954 98.5842 523.54 98.71C524.593 98.892 525.661 98.9723 526.73 98.95C529.244 99.1086 531.73 98.352 533.73 96.82C535.39 95.4 536.89 92.7933 538.23 89L540.48 83L517.66 26.59C517.231 25.6919 516.954 24.7288 516.84 23.74C516.84 22.8 517.39 22.32 518.49 22.32H525.6C526.511 22.2327 527.425 22.4394 528.21 22.91C528.879 23.6569 529.362 24.5512 529.62 25.52L546.21 71.47L562.21 25.52C562.468 24.5512 562.951 23.6569 563.62 22.91C564.405 22.4394 565.319 22.2327 566.23 22.32H572.86C573.97 22.32 574.52 22.8 574.52 23.74C574.401 24.729 574.12 25.6917 573.69 26.59L547.63 92.91Z" fill="#232F3E"/>
<path fill-rule="evenodd" clip-rule="evenodd" d="M226.37 106.06C205.16 121.71 174.37 130.06 147.93 130.06C112.557 130.24 78.3927 117.206 52.1297 93.5101C50.1297 91.7201 51.9097 89.2701 54.2997 90.6601C81.5797 106.53 115.3 116.09 150.16 116.09C175.286 115.953 200.138 110.855 223.29 101.09C226.87 99.5701 229.88 103.45 226.37 106.09M235.19 96.0201C237.91 99.4901 232.19 113.81 229.62 120.2C228.84 122.13 230.51 122.91 232.26 121.45C243.63 111.93 246.57 91.9901 244.26 89.1101C241.95 86.2301 222.06 83.7901 209.92 92.3201C208.05 93.6301 208.37 95.4401 210.45 95.1901C217.28 94.3701 232.5 92.5401 235.21 96.0201" fill="#232F3E"/>
</g>
<defs>
<clipPath id="clip0_111_1647">
<rect width="575" height="130" fill="white"/>
</clipPath>
</defs>
</svg>
