<svg xmlns="http://www.w3.org/2000/svg" fill="none" viewBox="0 0 129 32"><g clip-path="url(#a)"><path fill="#003087" d="M41 2.917h-7.8c-.5 0-1 .4-1.1.9l-3.1 20c-.1.4.2.7.6.7h3.7c.5 0 1-.4 1.1-.9l.8-5.4c.1-.5.5-.9 1.1-.9h2.5c5.1 0 8.1-2.5 8.9-7.4.3-2.1 0-3.8-1-5-1.1-1.3-3.1-2-5.7-2Zm.9 7.3c-.4 2.8-2.6 2.8-4.6 2.8h-1.2l.8-5.2c0-.3.3-.5.6-.5h.5c1.4 0 2.7 0 3.4.8.5.4.7 1.1.5 2.1Zm22.3-.1h-3.7c-.3 0-.6.2-.6.5l-.2 1-.3-.4c-.8-1.2-2.6-1.6-4.4-1.6-4.1 0-7.6 3.1-8.3 7.5-.4 2.2.1 4.3 1.4 5.7 1.1 1.3 2.8 1.9 4.7 1.9 3.3 0 5.2-2.1 5.2-2.1l-.2 1c-.1.4.2.8.6.8h3.4c.5 0 1-.4 1.1-.9l2-12.8c.1-.2-.3-.6-.7-.6Zm-5.1 7.2c-.4 2.1-2 3.6-4.2 3.6-1.1 0-1.9-.3-2.5-1-.6-.7-.8-1.6-.6-2.6.3-2.1 2.1-3.6 4.2-3.6 1.1 0 1.9.4 2.5 1 .5.7.7 1.6.6 2.6Zm25-7.2h-3.7c-.4 0-.7.2-.9.5l-5.2 7.6-2.2-7.3c-.1-.5-.6-.8-1-.8h-3.7c-.4 0-.8.4-.6.9l4.1 12.1-3.9 5.4c-.3.4 0 1 .5 1h3.7c.4 0 .7-.2.9-.5l12.5-18c.3-.3 0-.9-.5-.9Z"/><path fill="#009CDE" d="M96.5 2.917h-7.8c-.5 0-1 .4-1.1.9l-3.1 19.9c-.1.4.2.7.6.7h4c.4 0 .7-.3.7-.6l.9-5.7c.1-.5.5-.9 1.1-.9h2.5c5.1 0 8.1-2.5 8.9-7.4.3-2.1 0-3.8-1-5-1.2-1.2-3.1-1.9-5.7-1.9Zm.9 7.3c-.4 2.8-2.6 2.8-4.6 2.8h-1.2l.8-5.2c0-.3.3-.5.6-.5h.5c1.4 0 2.7 0 3.4.8.5.4.6 1.1.5 2.1Zm22.3-.1H116c-.3 0-.6.2-.6.5l-.2 1-.3-.4c-.8-1.2-2.6-1.6-4.4-1.6-4.1 0-7.6 3.1-8.3 7.5-.4 2.2.1 4.3 1.4 5.7 1.1 1.3 2.8 1.9 4.7 1.9 3.3 0 5.2-2.1 5.2-2.1l-.2 1c-.1.4.2.8.6.8h3.4c.5 0 1-.4 1.1-.9l2-12.8c0-.2-.3-.6-.7-.6Zm-5.2 7.2c-.4 2.1-2 3.6-4.2 3.6-1.1 0-1.9-.3-2.5-1-.6-.7-.8-1.6-.6-2.6.3-2.1 2.1-3.6 4.2-3.6 1.1 0 1.9.4 2.5 1 .6.7.8 1.6.6 2.6Zm9.6-13.9-3.2 20.3c-.1.4.2.7.6.7h3.2c.5 0 1-.4 1.1-.9l3.2-19.9c.1-.4-.2-.7-.6-.7h-3.6c-.4 0-.6.2-.7.5ZM19.566 9.9c.28-2.1 0-3.5-1.123-4.8C17.225 3.7 15.072 3 12.358 3H4.4c-.468 0-1.029.5-1.124 1L0 26.2c0 .4.281.9.749.9h4.868l-.281 2.2c-.094.4.187.7.561.7h4.12c.469 0 .936-.3 1.03-.8v-.3l.842-5.2v-.2c.094-.5.562-.9 1.03-.9h.563c4.024 0 7.114-1.7 8.05-6.7.468-2.1.282-3.8-.842-5-.281-.4-.75-.7-1.124-1Z"/><path fill="#012169" d="M19.566 9.9c.28-2.1 0-3.5-1.123-4.8C17.225 3.7 15.072 3 12.358 3H4.4c-.468 0-1.029.5-1.124 1L0 26.2c0 .4.281.9.749.9h4.868l1.311-8.3-.094.3c.094-.6.562-1 1.123-1h2.34c4.588 0 8.146-2 9.269-7.6-.093-.3 0-.4 0-.6Z"/><path fill="#003087" d="M8.146 9.9c.092-.3.28-.6.561-.8.186 0 .28-.1.467-.1h6.179c.75 0 1.497.1 2.061.2.186 0 .374 0 .561.1.187.1.374.1.468.2h.281c.28.1.561.3.842.4.28-2.1 0-3.5-1.123-4.9-1.124-1.4-3.276-2-5.992-2H4.4c-.468 0-1.029.4-1.124 1L0 26.2c0 .4.281.9.749.9h4.868l1.311-8.3 1.218-8.9Z"/></g><defs><clipPath id="a"><path fill="#fff" d="M0 0h129v32H0z"/></clipPath></defs></svg>